<?xml version="1.0" encoding="UTF-8"?> <svg xmlns="http://www.w3.org/2000/svg" width="50" height="50" viewBox="0 0 50 50" fill="none"> <g clip-path="url(#clip0)"> <path d="M39.5827 50C39.441 50 39.2973 49.9708 39.166 49.9125C38.7577 49.7354 29.166 45.4458 29.166 36.6812V29.3146C29.166 28.8729 29.4473 28.4771 29.8639 28.3312L39.2389 25.0583C39.4618 24.9812 39.7035 24.9812 39.9264 25.0583L49.3014 28.3312C49.7181 28.4771 49.9993 28.8729 49.9993 29.3146V36.6812C49.9993 45.4479 40.4077 49.7354 39.9993 49.9125C39.8681 49.9708 39.7243 50 39.5827 50ZM31.2493 30.0541V36.6812C31.2493 43.15 37.8389 46.9187 39.5806 47.8021C41.3223 46.9167 47.916 43.1312 47.916 36.6812V30.0541L39.5827 27.1458L31.2493 30.0541Z" fill="#41594B"></path> <path d="M38.7305 41.1854C38.7117 41.1854 38.6909 41.1854 38.6742 41.1833C38.3701 41.1666 38.093 41.0208 37.9076 40.7812L34.4971 36.375C34.1451 35.9187 34.2284 35.2645 34.6846 34.9125C35.1367 34.5604 35.793 34.6416 36.1451 35.0979L38.818 38.5541L43.9471 33.25C44.3451 32.8375 45.0055 32.827 45.4201 33.225C45.8326 33.625 45.8451 34.2833 45.4451 34.6979L39.4805 40.8666C39.2805 41.0708 39.0117 41.1854 38.7305 41.1854Z" fill="#41594B"></path> <path d="M40.6258 22.9166C40.0508 22.9166 39.5842 22.45 39.5842 21.875V12.6229L21.3113 21.7646C20.8029 22.0208 20.1717 21.8146 19.9134 21.2979C19.6592 20.7854 19.8654 20.1583 20.38 19.9021L40.1592 10.0062C40.48 9.84372 40.8654 9.86247 41.1717 10.0521C41.48 10.2416 41.6675 10.5771 41.6675 10.9375V21.875C41.6675 22.45 41.2008 22.9166 40.6258 22.9166Z" fill="#41594B"></path> <path d="M20.8208 41.6666C20.6542 41.6666 20.4875 41.6271 20.3354 41.5458L0.55625 31.1291C0.214583 30.95 0 30.5958 0 30.2083V10.9375C0 10.5771 0.1875 10.2416 0.49375 10.0521C0.797917 9.86247 1.18542 9.84372 1.50625 10.0062L21.2854 19.9021C21.6375 20.0791 21.8604 20.4396 21.8604 20.8333V40.625C21.8604 40.9896 21.6688 41.3271 21.3583 41.5166C21.1938 41.6166 21.0083 41.6666 20.8208 41.6666ZM2.08333 29.5791L19.7792 38.8979V21.4771L2.08333 12.6229V29.5791Z" fill="#41594B"></path> <path d="M40.6246 11.9792C40.4683 11.9792 40.31 11.9438 40.1579 11.8688L20.8204 2.20628L1.50793 11.8688C0.99751 12.1229 0.368344 11.9188 0.11001 11.4042C-0.14624 10.8896 0.0600104 10.2625 0.574594 10.0063L20.3538 0.110443C20.6475 -0.0353902 20.9933 -0.0353902 21.285 0.110443L41.0892 10.0063C41.6038 10.2646 41.8121 10.8896 41.5558 11.4042C41.3725 11.7688 41.0058 11.9792 40.6246 11.9792Z" fill="#41594B"></path> <path d="M10.5065 24.4563C9.93151 24.4563 9.46484 23.9896 9.46484 23.4146V15.6688C9.46484 15.275 9.68776 14.9146 10.0398 14.7375L29.819 4.8417C30.3294 4.58754 30.9586 4.79379 31.2169 5.30837C31.4732 5.82295 31.2648 6.44795 30.7503 6.70629L11.5482 16.3146V23.4167C11.5482 23.9917 11.0815 24.4563 10.5065 24.4563Z" fill="#41594B"></path> <path d="M20.8205 41.6667C20.4475 41.6667 20.0871 41.4667 19.9017 41.1125C19.6309 40.6042 19.8246 39.9729 20.333 39.7042L24.5121 37.4875C25.0225 37.2188 25.6517 37.4104 25.9205 37.9209C26.1913 38.4292 25.9975 39.0604 25.4892 39.3292L21.31 41.5459C21.1517 41.6271 20.985 41.6667 20.8205 41.6667Z" fill="#41594B"></path> </g> <defs> <clipPath id="clip0"> <rect width="50" height="50" fill="white"></rect> </clipPath> </defs> </svg> 