<?xml version="1.0" encoding="UTF-8"?> <svg xmlns="http://www.w3.org/2000/svg" width="50" height="50" viewBox="0 0 50 50" fill="none"> <path d="M47.6563 5.46875H28.9063C28.6991 5.46876 28.5003 5.55107 28.3538 5.69758C28.2073 5.84409 28.125 6.0428 28.125 6.25V38.2812H25.2365L23.0896 36.85C22.9613 36.7644 22.8105 36.7188 22.6563 36.7188H21.875V28.3615L23.3063 26.2146C23.3918 26.0863 23.4375 25.9355 23.4375 25.7812V23.4375C23.4375 23.2303 23.3552 23.0316 23.2087 22.8851C23.0622 22.7386 22.8635 22.6563 22.6563 22.6562H21.4174L21.0411 22.2799C20.379 21.6179 19.5081 21.2057 18.5763 21.1135C17.6446 21.0212 16.7097 21.2546 15.9307 21.774L14.8857 22.4706L13.8379 21.6323C14.0184 20.8372 13.9268 20.0045 13.5779 19.2676C13.959 19.07 14.2787 18.7715 14.5019 18.4047C14.7251 18.0379 14.8433 17.6169 14.8438 17.1875V16.1078L15.1737 15.9429C15.545 15.7588 15.8572 15.4744 16.0751 15.1219C16.2929 14.7694 16.4077 14.3629 16.4063 13.9485V12.5C16.4062 12.2928 16.3239 12.0941 16.1774 11.9476C16.0309 11.8011 15.8322 11.7188 15.625 11.7188H12.0523C11.596 11.7188 11.1472 11.8354 10.7486 12.0577C10.35 12.2799 10.0148 12.6004 9.77485 12.9886C9.53492 13.3768 9.39822 13.8199 9.37771 14.2758C9.3572 14.7317 9.45357 15.1853 9.65767 15.5935L10.1563 16.5907V17.1875L10.1564 17.1898C9.28915 17.211 8.4442 17.4686 7.7127 17.9349C6.98121 18.4012 6.39096 19.0584 6.00567 19.8356L3.60766 24.6316C3.29107 25.2666 3.12587 25.9664 3.125 26.676V28.2648C3.12439 28.7939 3.23184 29.3175 3.44076 29.8036L5.3587 34.2787L1.70803 39.3896C1.60054 39.5401 1.54992 39.7239 1.56516 39.9082C1.5804 40.0925 1.66053 40.2654 1.79129 40.3962L5.69754 44.3025C5.84408 44.449 6.0428 44.5312 6.25 44.5312C6.45721 44.5312 6.65593 44.449 6.80247 44.3025L7.58372 43.5212C7.7302 43.3747 7.8125 43.176 7.8125 42.9688V39.3366L9.82113 36.8258C10.0599 36.5265 10.2641 36.2013 10.4297 35.8562L10.9375 41.4417V43.75C10.9375 43.9572 11.0198 44.1559 11.1663 44.3024C11.3128 44.4489 11.5116 44.5312 11.7188 44.5312H17.1875C17.3947 44.5312 17.5934 44.4489 17.7399 44.3024C17.8864 44.1559 17.9687 43.9572 17.9688 43.75V42.1875H18.8844C19.0459 42.6444 19.3451 43.0401 19.7407 43.3199C20.1364 43.5997 20.6091 43.75 21.0938 43.75C21.5784 43.75 22.0511 43.5997 22.4468 43.3199C22.8425 43.0401 23.1416 42.6444 23.3031 42.1875H28.125V43.75C28.125 43.9572 28.2073 44.1559 28.3538 44.3024C28.5003 44.4489 28.6991 44.5312 28.9063 44.5312H32.0313C32.2385 44.5312 32.4372 44.4489 32.5837 44.3024C32.7302 44.1559 32.8125 43.9572 32.8125 43.75V42.1875H43.75V43.75C43.75 43.9572 43.8323 44.1559 43.9788 44.3024C44.1254 44.4489 44.3241 44.5312 44.5313 44.5312H47.6563C47.8635 44.5312 48.0622 44.4489 48.2087 44.3024C48.3552 44.1559 48.4375 43.9572 48.4375 43.75V6.25C48.4375 6.0428 48.3552 5.84409 48.2087 5.69758C48.0622 5.55107 47.8635 5.46876 47.6563 5.46875ZM18.75 36.7188V28.9062H20.3125V36.7188H18.75ZM21.0938 25C21.301 25 21.4997 24.9177 21.6462 24.7712C21.7927 24.6247 21.875 24.4259 21.875 24.2188V25.5447L20.6757 27.3438H18.3868L17.553 26.0931L19.0105 25H21.0938ZM15.2771 24.0875L16.7975 23.0741C17.2759 22.7551 17.8501 22.6117 18.4224 22.6684C18.9946 22.725 19.5296 22.9782 19.9362 23.3849L19.9889 23.4375H18.75C18.581 23.4375 18.4165 23.4923 18.2813 23.5937L16.3743 25.0239C15.7903 25.4621 15.0921 25.7219 14.3638 25.7722C13.6354 25.8226 12.9081 25.6612 12.2694 25.3075L13.6423 23.4769L14.3557 24.0476C14.4851 24.1511 14.6442 24.2108 14.8099 24.218C14.9755 24.2252 15.1392 24.1795 15.2771 24.0875ZM11.7933 17.5162C11.7446 17.4134 11.7192 17.3012 11.7188 17.1875V16.0499C12.1649 16.3989 12.7148 16.5892 13.2813 16.5904V17.1875C13.2809 17.3883 13.2034 17.5812 13.0646 17.7263C12.9259 17.8714 12.7366 17.9576 12.5361 17.9669C12.3072 17.7878 12.0579 17.6365 11.7933 17.5162ZM12.0523 13.2812H14.8438V13.9485C14.8442 14.0725 14.8098 14.1942 14.7446 14.2997C14.6794 14.4052 14.586 14.4903 14.4749 14.5453L13.7131 14.9262L13.7131 14.9263C13.484 15.0405 13.2189 15.0592 12.976 14.9783C12.7331 14.8973 12.5323 14.7233 12.4175 14.4944C12.3622 14.3837 12.2813 14.2877 12.1815 14.2144C12.0818 14.141 11.9661 14.0924 11.8439 14.0726C11.7217 14.0528 11.5965 14.0623 11.4787 14.1003C11.3609 14.1383 11.2538 14.2038 11.1663 14.2913L10.9444 14.5132C10.927 14.3577 10.9427 14.2002 10.9905 14.0511C11.0383 13.9021 11.1172 13.7649 11.2218 13.6485C11.3265 13.5321 11.4546 13.4392 11.5978 13.3759C11.7409 13.3126 11.8958 13.2804 12.0523 13.2812ZM7.40319 20.5343C7.66965 19.9969 8.08137 19.5448 8.59168 19.2294C9.10198 18.914 9.69045 18.748 10.2903 18.75C10.7708 18.7497 11.2365 18.9162 11.6077 19.2213C11.979 19.5264 12.2327 19.9509 12.3255 20.4223L11.4256 19.7024L10.4494 20.9226L12.4216 22.5003L11.0159 24.3747L9.08184 22.8274L8.10566 24.0476L9.16019 24.8911L9.05133 25H5.17035L7.40319 20.5343ZM3.36418 39.7593L3.76008 39.205L6.25 39.703V42.6452L3.36418 39.7593ZM8.601 35.8497L6.71821 38.2031L4.75598 37.8107L6.88572 34.829C6.96374 34.7198 7.0123 34.5924 7.02674 34.4589C7.04117 34.3255 7.02098 34.1906 6.96812 34.0672L5.52454 30.699L9.26702 32.7782C9.40089 33.3068 9.41042 33.8592 9.29486 34.3922C9.17931 34.9251 8.9418 35.424 8.601 35.8497V35.8497ZM11.3169 32.1296L6.23522 29.3064C5.76625 29.0457 5.37549 28.6643 5.10337 28.2018C4.83126 27.7394 4.68768 27.2126 4.6875 26.676C4.6875 26.6382 4.68939 26.6003 4.69084 26.5625H8.59375V27.3438C8.59375 27.4815 8.63016 27.6168 8.6993 27.7359C8.76844 27.855 8.86784 27.9538 8.98743 28.0221L12.8815 30.2472C13.2399 30.4526 13.5378 30.7489 13.7451 31.1062C13.9525 31.4635 14.062 31.8692 14.0625 32.2823V40.0151L12.4142 40.4271L11.7155 32.7417C11.704 32.6149 11.6617 32.4929 11.5922 32.3862C11.5227 32.2795 11.4282 32.1914 11.3169 32.1296ZM16.4063 42.9688H12.5V42.0162L14.6979 41.4667L16.4063 42.6056V42.9688ZM15.625 40.2069V32.2823C15.6241 31.5938 15.4417 30.9177 15.0961 30.3222C14.7505 29.7268 14.254 29.233 13.6567 28.8906L10.1563 26.8904V26.1048L10.3879 25.8733L10.7608 26.1716C11.5178 26.7779 12.4257 27.1667 13.387 27.296C14.3483 27.4254 15.3267 27.2905 16.2171 26.9059L17.1875 28.3615V41.2486L15.625 40.2069ZM21.0938 42.1875C20.9392 42.1875 20.7882 42.1417 20.6597 42.0558C20.5312 41.97 20.4311 41.848 20.372 41.7052C20.3128 41.5625 20.2974 41.4054 20.3275 41.2538C20.3577 41.1023 20.4321 40.9631 20.5413 40.8538C20.6506 40.7446 20.7898 40.6702 20.9413 40.64C21.0929 40.6099 21.25 40.6253 21.3927 40.6845C21.5355 40.7436 21.6575 40.8437 21.7433 40.9722C21.8292 41.1007 21.875 41.2517 21.875 41.4062C21.8748 41.6134 21.7924 41.812 21.6459 41.9584C21.4995 42.1049 21.3009 42.1873 21.0938 42.1875ZM24.2188 40.625H23.3031C23.1416 40.1681 22.8425 39.7724 22.4468 39.4926C22.0511 39.2128 21.5784 39.0625 21.0938 39.0625C20.6091 39.0625 20.1364 39.2128 19.7407 39.4926C19.3451 39.7724 19.0459 40.1681 18.8844 40.625H18.75V38.2812H22.4197L24.2188 39.4806V40.625ZM34.375 16.4062V14.8438H37.5V21.0938H29.6875V14.8438H32.8125V16.4062H34.375ZM43.75 16.4062V14.8438H46.875V21.0938H39.0625V14.8438H42.1875V16.4062H43.75ZM46.875 28.9062H39.0625V22.6562H42.1875V24.2188H43.75V22.6562H46.875V28.9062ZM46.875 36.7188H39.0625V30.4688H42.1875V32.0312H43.75V30.4688H46.875V36.7188ZM29.6875 36.7188V30.4688H32.8125V32.0312H34.375V30.4688H37.5V36.7188H29.6875ZM29.6875 22.6562H32.8125V24.2188H34.375V22.6562H37.5V28.9062H29.6875V22.6562ZM29.6875 38.2812H46.875V40.625H29.6875V38.2812ZM46.875 13.2812H39.0625V7.03125H42.1875V8.59375H43.75V7.03125H46.875V13.2812ZM29.6875 7.03125H32.8125V8.59375H34.375V7.03125H37.5V13.2812H29.6875V7.03125ZM28.125 40.625H25.7813V39.8438H28.125V40.625ZM31.25 42.9688H29.6875V42.1875H31.25V42.9688ZM45.3125 42.9688V42.1875H46.875V42.9688H45.3125Z" fill="#41594B"></path> </svg> 