<?xml version="1.0" encoding="UTF-8"?> <svg xmlns="http://www.w3.org/2000/svg" width="50" height="50" viewBox="0 0 50 50" fill="none"> <path d="M30.8323 0C26.4012 0 22.1108 1.52777 18.6842 4.3252C17.7428 5.01382 18.8679 6.38905 19.7356 5.61027C22.8644 3.0559 26.7862 1.66108 30.8323 1.66108C40.5069 1.66108 48.3334 9.44567 48.3334 19.0785C48.3334 28.7114 40.5069 36.5042 30.8323 36.5042C21.1577 36.5042 13.3312 28.7114 13.3312 19.0785C13.3312 15.0296 14.7476 11.1099 17.3366 7.98758C18.1928 7.12771 16.7449 5.93553 16.0574 6.9343C13.222 10.3537 11.6646 14.6443 11.6646 19.0785C11.6646 24.6794 14.0958 29.7228 17.9632 33.2161L14.5844 36.5755L13.2628 35.2596L14.7521 33.7833C15.5398 32.9989 14.3582 31.8225 13.5705 32.6068L12.0845 34.0864L11.4253 33.43C11.1183 33.1243 10.5771 33.0982 10.2437 33.43L1.27591 42.3592C-0.425303 44.0531 -0.425303 46.8153 1.27591 48.5092C2.97712 50.203 5.75615 50.203 7.45736 48.5092L16.4268 39.58C16.7499 39.2564 16.7499 38.7336 16.4268 38.4099L15.7644 37.7504L19.249 34.2759C22.4684 36.7141 26.4812 38.1636 30.8323 38.1636C41.4076 38.1636 50 29.6082 50 19.0785C50 8.54886 41.4076 0 30.8323 0ZM30.8323 4.14691C22.5581 4.14691 15.836 10.8401 15.836 19.0785C15.836 27.317 22.5581 34.0183 30.8323 34.0183C39.1065 34.0183 45.8367 27.317 45.8367 19.0785C45.8367 10.8401 39.1065 4.14691 30.8323 4.14691ZM30.8323 5.80637C38.2058 5.80637 44.1685 11.7369 44.1685 19.0785C44.1685 26.4202 38.2058 32.3589 30.8323 32.3589C23.4588 32.3589 17.5026 26.4202 17.5026 19.0785C17.5026 11.7369 23.4588 5.80637 30.8323 5.80637ZM25.0008 10.7863C23.6302 10.7863 22.5041 11.9076 22.5041 13.2722V24.8914C22.5041 26.2561 23.6302 27.379 25.0008 27.379H36.6638C38.0344 27.379 39.1686 26.2561 39.1686 24.8914V13.2722C39.1686 11.9076 38.0344 10.7863 36.6638 10.7863H25.0008ZM25.0008 12.4457H32.4989V15.8764L31.2945 15.0742C31.015 14.8892 30.6512 14.8892 30.3717 15.0742L29.1657 15.8764V14.9333C29.1657 13.8267 27.4991 13.8267 27.4991 14.9333V17.4191C27.4965 18.0845 28.2414 18.4821 28.7962 18.1111L30.8323 16.7579L32.8684 18.1111C33.4232 18.4821 34.1697 18.086 34.1672 17.4191V12.4457H36.6638C37.1399 12.4457 37.5004 12.7982 37.5004 13.2722V24.8914C37.5004 25.3654 37.1399 25.7179 36.6638 25.7179H25.0008C24.5247 25.7179 24.1642 25.3654 24.1642 24.8914V13.2722C24.1642 12.7982 24.5247 12.4457 25.0008 12.4457ZM26.669 22.3991C25.533 22.374 25.533 24.0835 26.669 24.0584H30.0022C31.1383 24.0835 31.1383 22.374 30.0022 22.3991H26.669ZM10.8345 35.1883L14.6609 38.9982L6.27576 47.339C5.20703 48.4031 3.52461 48.4031 2.45589 47.339C1.38717 46.2749 1.38717 44.5933 2.45589 43.5292L10.8345 35.1883Z" fill="#41594B"></path> </svg> 