<svg xmlns="http://www.w3.org/2000/svg" width="200" height="180" viewBox="0 0 200 180" fill="none" m_init="2259300202204070759"> <path d="M197.977 73.6039C196.754 73.0774 195.334 73.334 194.367 74.2539L140.827 125.244C140.16 125.88 139.784 126.767 139.794 127.69C139.804 128.613 140.198 129.49 140.877 130.117L194.414 179.127C195.044 179.7 195.85 180 196.667 180C197.12 180 197.577 179.91 198.01 179.717C199.22 179.184 200 177.987 200 176.667V76.6672C200 75.3371 199.207 74.1305 197.977 73.6039ZM193.334 169.097L148.014 127.607L193.334 84.4468V169.097Z" fill="#577D66"/> <path d="M143.333 0H3.33319C1.49335 0 0 1.49335 0 3.33358V103.333C0 105.173 1.49335 106.666 3.33319 106.666H143.333C145.172 106.666 146.666 105.176 146.666 103.333V3.33358C146.666 1.49335 145.173 0 143.333 0ZM139.999 99.9996H6.66677V6.66677H139.999V99.9996Z" fill="#577D66"/> <path d="M146.431 2.09335C145.928 0.830074 144.701 0 143.338 0H3.33851C1.97523 0 0.748676 0.833199 0.245163 2.09647C-0.261476 3.36327 0.0518042 4.80662 1.03852 5.74646L71.0382 72.413C71.6816 73.0262 72.5116 73.3329 73.3382 73.3329C74.1648 73.3329 74.9948 73.0298 75.6351 72.413L145.635 5.74646C146.621 4.80349 146.938 3.36014 146.431 2.09335ZM73.3382 65.3997L11.6721 6.66677H135.005L73.3382 65.3997Z" fill="#577D66"/> <path d="M144.644 0.274154C143.418 -0.252407 141.998 0.000717421 141.031 0.920635L87.4915 51.9106C86.8247 52.5474 86.4482 53.4341 86.4583 54.3571C86.4685 55.2806 86.8618 56.1571 87.5415 56.7837L141.078 105.794C141.708 106.367 142.515 106.667 143.331 106.667C143.785 106.667 144.241 106.577 144.674 106.384C145.885 105.851 146.664 104.654 146.664 103.334V3.3343C146.665 2.00422 145.871 0.797589 144.644 0.274154ZM139.998 95.764L94.6782 54.2739L139.998 11.1143V95.764Z" fill="#577D66"/> <path d="M59.1697 51.9064L5.63318 0.92025C4.66639 0.000332574 3.24334 -0.256307 2.01991 0.270253C0.793356 0.793298 0 1.99993 0 3.33352V103.333C0 104.657 0.780075 105.853 1.98983 106.383C2.42304 106.573 2.87967 106.666 3.33319 106.666C4.14998 106.666 4.95662 106.366 5.58318 105.793L59.1197 56.7798C59.8029 56.1563 60.1931 55.2763 60.2029 54.3532C60.213 53.4298 59.8396 52.5431 59.1697 51.9064ZM6.66677 95.7663V11.1136L51.9865 54.2767L6.66677 95.7663Z" fill="#577D66"/> <path d="M199.758 75.427C199.254 74.1637 198.027 73.3337 196.664 73.3337H143.331C141.491 73.3337 139.998 74.827 139.998 76.6669V100H84.6647C83.3014 100 82.0748 100.833 81.5682 102.093C81.0616 103.36 81.3783 104.807 82.3647 105.747L124.364 145.747C125.008 146.36 125.838 146.667 126.664 146.667C127.491 146.667 128.321 146.363 128.961 145.747L198.961 79.0801C199.947 78.1368 200.264 76.6934 199.758 75.427ZM126.664 138.733L92.9978 106.667H143.331C145.171 106.667 146.664 105.173 146.664 103.334V80H188.331L126.664 138.733Z" fill="#577D66"/> <path d="M196.665 73.3337H143.332C141.492 73.3337 139.999 74.827 139.999 76.6669V100H56.666C54.8261 100 53.3328 101.493 53.3328 103.333V176.666C53.3328 178.506 54.8261 179.999 56.666 179.999H196.665C198.505 179.999 199.999 178.509 199.999 176.666V76.6665C199.999 74.827 198.505 73.3337 196.665 73.3337ZM193.332 173.333H59.9992V106.667H143.332C145.172 106.667 146.665 105.173 146.665 103.334V80H193.332V173.333Z" fill="#577D66"/> <path d="M112.502 125.239L86.9658 100.919C86.3459 100.33 85.5225 99.9996 84.6658 99.9996H56.666C54.8261 99.9996 53.3328 101.493 53.3328 103.333V176.666C53.3328 177.989 54.1129 179.186 55.3226 179.716C55.7558 179.905 56.2124 179.999 56.666 179.999C57.4828 179.999 58.2894 179.699 58.9159 179.125L112.452 130.112C113.136 129.489 113.526 128.609 113.536 127.686C113.546 126.763 113.172 125.876 112.502 125.239ZM59.9992 169.096V106.666H83.3322L105.319 127.606L59.9992 169.096Z" fill="#577D66"/> <path d="M196.667 33.3329H166.667C164.827 33.3329 163.334 34.8262 163.334 36.666C163.334 38.5059 164.827 39.9992 166.667 39.9992H196.667C198.507 39.9992 200 38.5059 200 36.666C200 34.8262 198.507 33.3329 196.667 33.3329Z" fill="#577D66"/> <path d="M186.665 20.0009H156.666C154.826 20.0009 153.332 21.4942 153.332 23.3341C153.332 25.1739 154.826 26.6673 156.666 26.6673H186.665C188.505 26.6673 189.999 25.1739 189.999 23.3341C189.999 21.4942 188.505 20.0009 186.665 20.0009Z" fill="#577D66"/> <path d="M186.665 46.6668H156.666C154.826 46.6668 153.332 48.1601 153.332 50C153.332 51.8398 154.826 53.3332 156.666 53.3332H186.665C188.505 53.3332 189.999 51.8398 189.999 50C189.999 48.1601 188.505 46.6668 186.665 46.6668Z" fill="#577D66"/> <path d="M33.3331 139.999H3.33319C1.49335 139.999 0 141.493 0 143.333C0 145.173 1.49335 146.666 3.33319 146.666H33.3331C35.1729 146.666 36.6662 145.173 36.6662 143.333C36.6662 141.493 35.1733 139.999 33.3331 139.999Z" fill="#577D66"/> <path d="M43.3345 153.333H13.3346C11.4948 153.333 10.0014 154.827 10.0014 156.666C10.0014 158.506 11.4948 160 13.3346 160H43.3345C45.1743 160 46.6677 158.506 46.6677 156.666C46.6677 154.827 45.1747 153.333 43.3345 153.333Z" fill="#577D66"/> <path d="M43.3345 126.665H13.3346C11.4948 126.665 10.0014 128.159 10.0014 129.999C10.0014 131.838 11.4948 133.332 13.3346 133.332H43.3345C45.1743 133.332 46.6677 131.838 46.6677 129.999C46.6677 128.159 45.1747 126.665 43.3345 126.665Z" fill="#577D66"/> </svg>