<svg xmlns="http://www.w3.org/2000/svg" width="200" height="200" viewBox="0 0 200 200" fill="none" m_init="2259300202204070759"> <path d="M126.666 0.00195313C124.827 0.00195313 123.333 1.49531 123.333 3.33515C123.333 5.175 124.827 6.66835 126.666 6.66835C163.426 6.66835 193.333 36.575 193.333 73.3351C193.333 75.1749 194.826 76.6683 196.666 76.6683C198.51 76.6683 199.999 75.1749 199.999 73.3351C199.999 32.8988 167.103 0.00195313 126.666 0.00195313Z" fill="#577D66"/> <path d="M126.666 20.001C124.827 20.001 123.333 21.4944 123.333 23.3342C123.333 25.174 124.827 26.6674 126.666 26.6674C152.4 26.6674 173.333 47.6006 173.333 73.3342C173.333 75.174 174.826 76.6674 176.666 76.6674C178.51 76.6674 179.999 75.174 179.999 73.3342C179.999 43.9279 156.076 20.001 126.666 20.001Z" fill="#577D66"/> <path d="M126.666 40.002C124.827 40.002 123.333 41.4954 123.333 43.3352C123.333 45.175 124.827 46.6684 126.666 46.6684C141.37 46.6684 153.333 58.6317 153.333 73.3351C153.333 75.175 154.826 76.6683 156.666 76.6683C158.51 76.6683 160 75.175 160 73.3351C160 54.9555 145.046 40.002 126.666 40.002Z" fill="#577D66"/> <path d="M180.376 125.084C171.306 123.89 162.363 121.664 153.796 118.474C145.5 115.363 136.073 117.37 129.759 123.6L119.223 134.113C97.1294 121.087 78.6728 102.667 65.6161 80.6169L76.1595 70.097C82.3927 63.8071 84.406 54.3904 81.2896 46.1138C78.0931 37.5607 75.863 28.6373 74.663 19.5537C73.0661 8.29352 63.3161 -0.043191 51.9197 0.000168354H22.7564C22.0763 0.000168354 21.3963 0.0333714 20.7232 0.0935276C14.6662 0.640402 9.18298 3.51032 5.28611 8.17047C1.38963 12.8338 -0.457243 18.7337 0.0962725 24.8369C3.32635 55.197 13.8263 84.7868 30.4431 110.387C45.5298 134.08 66.0533 154.563 89.7696 169.604C115.323 186.143 144.833 196.62 175.176 199.91C175.863 199.97 176.553 200 177.246 200C177.266 200 177.286 200 177.309 200C189.87 199.946 200.043 189.707 199.993 177.183V148.12C200.256 136.597 191.843 126.697 180.376 125.084ZM193.326 148C193.326 148.027 193.326 148.057 193.326 148.083V177.2C193.359 186.06 186.163 193.3 177.286 193.337C176.766 193.317 176.266 193.317 175.826 193.277C146.58 190.103 118.073 179.983 93.363 163.99C70.4431 149.453 50.6298 129.68 36.0498 106.78C19.9861 82.0337 9.84626 53.4536 6.72947 24.1837C6.34275 19.9103 7.64627 15.7439 10.4029 12.447C13.1595 9.15016 17.0361 7.12048 21.3228 6.73376C21.7994 6.6904 22.2763 6.66696 22.756 6.66696H51.9494C52.0029 6.66696 52.056 6.66696 52.1095 6.66696C60.0962 6.66696 66.9396 12.5838 68.056 20.4568C69.3193 30.0068 71.6693 39.4267 75.0458 48.4568C77.2493 54.3099 75.8259 60.9634 71.4357 65.3935L59.0892 77.7134C58.0224 78.7767 57.8025 80.4169 58.5458 81.7235C72.6724 106.524 93.2759 127.084 118.119 141.18C119.426 141.923 121.059 141.697 122.119 140.64L134.452 128.334C138.909 123.937 145.586 122.52 151.459 124.72C160.499 128.087 169.936 130.437 179.472 131.69C187.573 132.83 193.529 139.84 193.326 148Z" fill="#577D66"/> <path d="M50.0017 13.336H22.7583C22.4782 13.336 22.2017 13.3492 21.9251 13.3758C18.5286 13.6824 16.4517 15.609 15.5185 16.7258C14.7685 17.6223 13.0552 20.0692 13.3552 23.4293C14.6154 35.2527 16.895 46.7558 20.1384 57.6226C20.5716 59.066 21.895 60.0027 23.3318 60.0027C23.6486 60.0027 23.9685 59.9594 24.2884 59.8629C26.0517 59.3363 27.0552 57.4797 26.5282 55.7164C23.4017 45.243 21.2017 34.143 19.9915 22.7797C19.915 21.9332 20.465 21.2031 20.6349 20.9965C20.9083 20.6699 21.5181 20.1067 22.7583 20.0031H49.995C49.9985 20.0031 49.9985 20.0031 49.9985 20.0031C51.8384 20.0031 53.3317 18.5133 53.3317 16.6731C53.3349 14.8324 51.8415 13.336 50.0017 13.336Z" fill="#577D66"/> <path d="M183.33 146.669C181.49 146.669 179.997 148.162 179.997 150.002L179.993 177.199C179.997 177.949 179.71 178.655 179.186 179.182C178.663 179.709 177.97 179.999 177.31 180.002L177.003 179.995C165.613 178.759 154.607 176.565 144.29 173.475C142.533 172.945 140.67 173.949 140.14 175.712C139.61 177.475 140.613 179.332 142.377 179.862C153.08 183.069 164.49 185.342 176.343 186.629C176.617 186.655 177.173 186.669 177.254 186.669C179.777 186.659 182.143 185.669 183.92 183.879C185.697 182.085 186.67 179.705 186.66 177.185L186.663 150.002C186.663 148.162 185.17 146.669 183.33 146.669Z" fill="#577D66"/> </svg>