<svg xmlns="http://www.w3.org/2000/svg" width="50" height="50" viewBox="0 0 50 50" fill="none" m_init="2259300202204070759"> <g clip-path="url(#clip0)"> <path d="M49.2207 37.5046C48.7887 37.5046 48.4395 37.1554 48.4395 36.7234V26.571C48.4395 26.139 48.7887 25.7898 49.2207 25.7898C49.6527 25.7898 50.002 26.139 50.002 26.571V36.7234C50.002 37.1554 49.6527 37.5046 49.2207 37.5046Z" fill="#41594B"/> <path d="M49.2222 27.3524C48.9354 27.3524 48.6589 27.1945 48.5222 26.9203L44.6159 19.1063C44.4229 18.7203 44.5792 18.2508 44.9651 18.0578C45.3503 17.8641 45.8214 18.0211 46.0136 18.407L49.9198 26.2211C50.1128 26.607 49.9565 27.0766 49.5706 27.2695C49.4589 27.3258 49.3393 27.3524 49.2222 27.3524Z" fill="#41594B"/> <path d="M49.2195 35.1594H40.6289C40.1969 35.1594 39.8477 34.8101 39.8477 34.3781C39.8477 33.9461 40.1969 33.5969 40.6289 33.5969H49.2195C49.6515 33.5969 50.0008 33.9461 50.0008 34.3781C50.0008 34.8101 49.6515 35.1594 49.2195 35.1594Z" fill="#41594B"/> <path d="M49.2203 37.5046H44.6914C44.2594 37.5046 43.9102 37.1554 43.9102 36.7234C43.9102 36.2914 44.2594 35.9421 44.6914 35.9421H49.2203C49.6523 35.9421 50.0016 36.2914 50.0016 36.7234C50.0016 37.1554 49.6523 37.5046 49.2203 37.5046Z" fill="#41594B"/> <path d="M33.598 32.8132H3.9043C3.47227 32.8132 3.12305 32.464 3.12305 32.032C3.12305 31.6 3.47227 31.2507 3.9043 31.2507H33.598C34.0301 31.2507 34.3793 31.6 34.3793 32.032C34.3793 32.464 34.0301 32.8132 33.598 32.8132Z" fill="#41594B"/> <path d="M45.3137 19.5383H33.5957C33.1637 19.5383 32.8145 19.1883 32.8145 18.757C32.8145 18.3258 33.1637 17.9758 33.5957 17.9758H45.3137C45.7457 17.9758 46.0949 18.3258 46.0949 18.757C46.0949 19.1883 45.7457 19.5383 45.3137 19.5383Z" fill="#41594B"/> <path d="M33.5973 39.0641C33.166 39.0641 32.816 38.7148 32.816 38.2828L32.8145 18.757C32.8145 18.3258 33.1637 17.9758 33.5957 17.9758C34.027 17.9758 34.377 18.3258 34.377 18.757L34.3785 38.2828C34.3785 38.7141 34.0293 39.0641 33.5973 39.0641Z" fill="#41594B"/> <path d="M45.3305 27.3524C45.3266 27.3531 45.3211 27.3531 45.3148 27.3524H36.7227C36.2906 27.3524 35.9414 27.0031 35.9414 26.5711V21.8836C35.9414 21.4524 36.2906 21.1024 36.7227 21.1024H42.9703C43.2664 21.1024 43.5367 21.2695 43.6695 21.5344L45.9516 26.0961C46.0531 26.2281 46.1125 26.393 46.1125 26.5711C46.1117 27.0024 45.7625 27.3524 45.3305 27.3524ZM37.5039 25.7899H44.0516L42.4875 22.6649H37.5039V25.7899Z" fill="#41594B"/> <path d="M40.6289 44.5327C37.6141 44.5327 35.1602 42.0788 35.1602 39.064C35.1602 36.0491 37.6141 33.5952 40.6289 33.5952C43.6438 33.5952 46.0977 36.0491 46.0977 39.064C46.0977 42.0788 43.6438 44.5327 40.6289 44.5327ZM40.6289 35.1577C38.475 35.1577 36.7227 36.9101 36.7227 39.064C36.7227 41.2179 38.475 42.9702 40.6289 42.9702C42.7828 42.9702 44.5352 41.2179 44.5352 39.064C44.5352 36.9101 42.7828 35.1577 40.6289 35.1577Z" fill="#41594B"/> <path d="M21.0996 44.5327C18.0848 44.5327 15.6309 42.0788 15.6309 39.064C15.6309 36.0491 18.0848 33.5952 21.0996 33.5952C24.1145 33.5952 26.5684 36.0491 26.5684 39.064C26.5684 42.0788 24.1145 44.5327 21.0996 44.5327ZM21.0996 35.1577C18.9457 35.1577 17.1934 36.9101 17.1934 39.064C17.1934 41.2179 18.9457 42.9702 21.0996 42.9702C23.2535 42.9702 25.0059 41.2179 25.0059 39.064C25.0059 36.9101 23.2535 35.1577 21.0996 35.1577Z" fill="#41594B"/> <path d="M10.166 44.5327C7.15117 44.5327 4.69727 42.0788 4.69727 39.064C4.69727 36.0491 7.15117 33.5952 10.166 33.5952C13.1809 33.5952 15.6348 36.0491 15.6348 39.064C15.6348 42.0788 13.1809 44.5327 10.166 44.5327ZM10.166 35.1577C8.01211 35.1577 6.25977 36.9101 6.25977 39.064C6.25977 41.2179 8.01211 42.9702 10.166 42.9702C12.3199 42.9702 14.0723 41.2179 14.0723 39.064C14.0723 36.9101 12.3199 35.1577 10.166 35.1577Z" fill="#41594B"/> <path d="M10.166 41.4077C8.87383 41.4077 7.82227 40.3562 7.82227 39.064C7.82227 37.7718 8.87383 36.7202 10.166 36.7202C11.4582 36.7202 12.5098 37.7718 12.5098 39.064C12.5098 40.3562 11.4582 41.4077 10.166 41.4077ZM10.166 38.2827C9.73477 38.2827 9.38477 38.6327 9.38477 39.064C9.38477 39.4952 9.73477 39.8452 10.166 39.8452C10.5973 39.8452 10.9473 39.4952 10.9473 39.064C10.9473 38.6327 10.5965 38.2827 10.166 38.2827Z" fill="#41594B"/> <path d="M21.0996 41.4077C19.8074 41.4077 18.7559 40.3562 18.7559 39.064C18.7559 37.7718 19.8074 36.7202 21.0996 36.7202C22.3918 36.7202 23.4434 37.7718 23.4434 39.064C23.4434 40.3562 22.3918 41.4077 21.0996 41.4077ZM21.0996 38.2827C20.6684 38.2827 20.3184 38.6327 20.3184 39.064C20.3184 39.4952 20.6684 39.8452 21.0996 39.8452C21.5309 39.8452 21.8809 39.4952 21.8809 39.064C21.8809 38.6327 21.5309 38.2827 21.0996 38.2827Z" fill="#41594B"/> <path d="M40.6289 41.4077C39.3367 41.4077 38.2852 40.3562 38.2852 39.064C38.2852 37.7718 39.3367 36.7202 40.6289 36.7202C41.9211 36.7202 42.9727 37.7718 42.9727 39.064C42.9727 40.3562 41.9211 41.4077 40.6289 41.4077ZM40.6289 38.2827C40.1977 38.2827 39.8477 38.6327 39.8477 39.064C39.8477 39.4952 40.1977 39.8452 40.6289 39.8452C41.0602 39.8452 41.4102 39.4952 41.4102 39.064C41.4102 38.6327 41.0602 38.2827 40.6289 38.2827Z" fill="#41594B"/> <path d="M16.4777 39.064H14.7949C14.3629 39.064 14.0137 38.7147 14.0137 38.2827C14.0137 37.8507 14.3629 37.5015 14.7949 37.5015H16.4777C16.9098 37.5015 17.259 37.8507 17.259 38.2827C17.259 38.7147 16.9098 39.064 16.4777 39.064Z" fill="#41594B"/> <path d="M36.0066 39.064H25.7207C25.2887 39.064 24.9395 38.7147 24.9395 38.2827C24.9395 37.8507 25.2887 37.5015 25.7207 37.5015H36.0066C36.4387 37.5015 36.7879 37.8507 36.7879 38.2827C36.7879 38.7147 36.4387 39.064 36.0066 39.064Z" fill="#41594B"/> <path d="M5.54531 39.064H1.55859C1.12656 39.064 0.777344 38.7147 0.777344 38.2827C0.777344 37.8507 1.12656 37.5015 1.55859 37.5015H5.54531C5.97734 37.5015 6.32656 37.8507 6.32656 38.2827C6.32656 38.7147 5.97656 39.064 5.54531 39.064Z" fill="#41594B"/> <path d="M1.55905 39.0641C1.46764 39.0641 1.37545 39.0477 1.28405 39.0149C0.880142 38.8633 0.676236 38.4125 0.827017 38.0086L3.17311 31.7578C3.32545 31.3531 3.77545 31.1508 4.17936 31.3008C4.58327 31.4524 4.78717 31.9031 4.63639 32.307L2.2903 38.5578C2.17233 38.8711 1.87467 39.0641 1.55905 39.0641Z" fill="#41594B"/> <path d="M37.5 29.6945H36.7188C36.2867 29.6945 35.9375 29.3453 35.9375 28.9133C35.9375 28.4812 36.2867 28.132 36.7188 28.132H37.5C37.932 28.132 38.2812 28.4812 38.2812 28.9133C38.2812 29.3453 37.932 29.6945 37.5 29.6945Z" fill="#41594B"/> <path d="M28.1195 32.839H14.832C14.4 32.839 14.0508 32.4898 14.0508 32.0578V28.1273C14.0508 27.6953 14.4 27.3461 14.832 27.3461H28.1195C28.5516 27.3461 28.9008 27.6953 28.9008 28.1273V32.0578C28.9008 32.4898 28.5516 32.839 28.1195 32.839ZM15.6133 31.2765H27.3383V28.9086H15.6133V31.2765Z" fill="#41594B"/> <path d="M17.959 28.9085C17.527 28.9085 17.1777 28.5593 17.1777 28.1272V23.439C17.1777 23.0077 17.527 22.6577 17.959 22.6577C18.391 22.6577 18.7402 23.0077 18.7402 23.439V28.1272C18.7402 28.5593 18.391 28.9085 17.959 28.9085Z" fill="#41594B"/> <path d="M24.9922 28.9085C24.5602 28.9085 24.2109 28.5593 24.2109 28.1272V22.6577C24.2109 22.2265 24.5602 21.8765 24.9922 21.8765C25.4242 21.8765 25.7734 22.2265 25.7734 22.6577V28.1272C25.7734 28.5593 25.4242 28.9085 24.9922 28.9085Z" fill="#41594B"/> <path d="M17.959 24.2203C17.773 24.2203 17.5855 24.1539 17.4363 24.0196L1.8168 9.9555C1.49649 9.66644 1.4707 9.17269 1.75899 8.85238C2.04727 8.53206 2.5418 8.50706 2.86211 8.79456L18.4816 22.8586C18.802 23.1477 18.8277 23.6414 18.5395 23.9618C18.3855 24.1328 18.173 24.2203 17.959 24.2203Z" fill="#41594B"/> <path d="M24.9914 23.439C24.8328 23.439 24.6727 23.3906 24.5336 23.2906L1.88125 6.88122C1.53203 6.6281 1.45391 6.13982 1.70782 5.7906C1.95938 5.44138 2.44766 5.36169 2.79844 5.6156L25.4508 22.025C25.8 22.2781 25.8781 22.7664 25.625 23.1156C25.4727 23.3265 25.2336 23.439 24.9914 23.439Z" fill="#41594B"/> <path d="M2.34297 25.0032C1.91172 25.0032 1.56172 24.6532 1.56172 24.222L1.55859 6.24854C1.55859 5.81729 1.90781 5.46729 2.33984 5.46729C2.77109 5.46729 3.12109 5.81729 3.12109 6.24854L3.12422 24.222C3.12422 24.6532 2.775 25.0032 2.34297 25.0032Z" fill="#41594B"/> <path d="M2.3418 28.9109C1.04961 28.9109 -0.00195312 27.8586 -0.00195312 26.5664C-0.00195312 26.1344 0.347266 25.7852 0.779297 25.7852C1.21133 25.7852 1.56055 26.1344 1.56055 26.5664C1.56055 26.9977 1.91055 27.3484 2.3418 27.3484C2.77305 27.3484 3.12305 26.9977 3.12305 26.5664C3.12305 25.5172 1.99961 24.9242 1.98789 24.9187C1.60664 24.7211 1.45273 24.2516 1.64727 23.8695C1.84258 23.4867 2.30742 23.3312 2.69102 23.5242C2.77227 23.5648 4.68555 24.5453 4.68555 26.5672C4.68555 27.8586 3.63398 28.9109 2.3418 28.9109Z" fill="#41594B"/> <path d="M3.12305 23.4414H1.56055C1.12852 23.4414 0.779297 23.0914 0.779297 22.6602C0.779297 22.2289 1.12852 21.8789 1.56055 21.8789H3.12305C3.55508 21.8789 3.9043 22.2289 3.9043 22.6602C3.9043 23.0914 3.55508 23.4414 3.12305 23.4414Z" fill="#41594B"/> <path d="M15.6131 28.9085C15.3092 28.9085 15.0202 28.7296 14.8944 28.4327L10.2171 17.4218C10.0475 17.0249 10.2335 16.5655 10.6303 16.3968C11.0241 16.2296 11.4866 16.4132 11.6546 16.8101L16.3319 27.8218C16.5014 28.2187 16.3155 28.6772 15.9186 28.846C15.8194 28.889 15.7155 28.9085 15.6131 28.9085Z" fill="#41594B"/> <path d="M30.4668 32.839C30.0348 32.839 29.6855 32.4898 29.6855 32.0578V21.8828C29.6855 21.4515 30.0348 21.1015 30.4668 21.1015C30.8988 21.1015 31.248 21.4515 31.248 21.8828V32.0578C31.248 32.4898 30.8988 32.839 30.4668 32.839Z" fill="#41594B"/> <path d="M33.5902 22.664H30.4668C30.0348 22.664 29.6855 22.314 29.6855 21.8828C29.6855 21.4515 30.0348 21.1015 30.4668 21.1015H33.5902C34.0223 21.1015 34.3715 21.4515 34.3715 21.8828C34.3715 22.314 34.0223 22.664 33.5902 22.664Z" fill="#41594B"/> </g> <defs> <clipPath id="clip0"> <rect width="50" height="50" fill="white"/> </clipPath> </defs> </svg>