<svg xmlns="http://www.w3.org/2000/svg" width="154" height="200" viewBox="0 0 154 200" fill="none" m_init="2259300202204070759"> <path d="M104.903 9.99999H96.373C93.8929 9.99999 91.5229 8.79335 90.0331 6.76992C86.9132 2.5332 81.9163 0 76.6698 0C71.4234 0 66.4265 2.5332 63.3066 6.76992C61.8167 8.79335 59.4464 9.99999 56.9667 9.99999H48.4367C41.9468 9.99999 36.6699 15.2801 36.6699 21.7668V40C36.6699 41.8433 38.1632 43.3332 40.0031 43.3332H113.336C115.176 43.3332 116.669 41.8433 116.669 40V21.7668C116.67 15.2801 111.393 9.99999 104.903 9.99999ZM110.003 36.6668H43.3367V21.7668C43.3367 18.9566 45.6265 16.6668 48.4367 16.6668H56.9667C61.5566 16.6668 65.9335 14.4469 68.6769 10.7234C70.5734 8.14335 73.487 6.66679 76.6702 6.66679C79.8534 6.66679 82.7667 8.14335 84.6667 10.7234C87.4065 14.4469 91.7835 16.6668 96.3733 16.6668H104.903C107.714 16.6668 110.003 18.9566 110.003 21.7668V36.6668H110.003Z" fill="#577D66"/> <path d="M136.667 16.667H113.333C111.494 16.667 110 18.1568 110 20.0002V36.667H43.3336V20.0002C43.3336 18.1568 41.8402 16.667 40.0003 16.667H16.6668C7.47695 16.667 0 24.1435 0 33.3338V183.334C0 192.523 7.47695 200 16.6668 200H136.667C145.856 200 153.333 192.523 153.333 183.333V33.3334C153.333 24.1435 145.856 16.667 136.667 16.667ZM146.667 183.333C146.667 188.846 142.18 193.333 136.667 193.333H16.6668C11.1535 193.333 6.66679 188.846 6.66679 183.333V33.3334C6.66679 27.8201 11.1535 23.3334 16.6668 23.3334H36.6668V40.0002C36.6668 41.8435 38.1601 43.3334 40 43.3334H113.333C115.173 43.3334 116.666 41.8435 116.666 40.0002V23.3334H136.666C142.18 23.3334 146.666 27.8201 146.666 33.3334V183.333H146.667Z" fill="#577D66"/> <path d="M130 30.0009H113.333C111.494 30.0009 110 31.4908 110 33.3341V36.6673H43.3339V33.3341C43.3339 31.4908 41.8406 30.0009 40.0007 30.0009H23.334C17.8207 30.0009 13.334 34.4877 13.334 40.0009V176.668C13.334 182.181 17.8207 186.668 23.334 186.668H130.001C135.514 186.668 140.001 182.181 140.001 176.668V40.0009C140 34.4877 135.514 30.0009 130 30.0009ZM133.334 176.668C133.334 178.507 131.837 180.001 130.001 180.001H23.334C21.4972 180.001 20.0008 178.507 20.0008 176.668V40.0009C20.0008 38.1611 21.4972 36.6677 23.334 36.6677H36.6672V40.0009C36.6672 41.8443 38.1605 43.3341 40.0004 43.3341H113.333C115.173 43.3341 116.667 41.8443 116.667 40.0009V36.6677H130C131.837 36.6677 133.333 38.1611 133.333 40.0009V176.668H133.334Z" fill="#577D66"/> <path d="M103.333 59.9999H70.0001C68.1603 59.9999 66.6669 61.4898 66.6669 63.3331C66.6669 65.1765 68.1603 66.6663 70.0001 66.6663H103.333C105.173 66.6663 106.666 65.1765 106.666 63.3331C106.666 61.4898 105.173 59.9999 103.333 59.9999Z" fill="#577D66"/> <path d="M123.334 59.9999H116.667C114.827 59.9999 113.334 61.4898 113.334 63.3331C113.334 65.1765 114.827 66.6663 116.667 66.6663H123.334C125.174 66.6663 126.667 65.1765 126.667 63.3331C126.667 61.4898 125.174 59.9999 123.334 59.9999Z" fill="#577D66"/> <path d="M79.9991 73.3339H69.9992C68.1593 73.3339 66.6659 74.8238 66.6659 76.6671C66.6659 78.5105 68.1593 80.0003 69.9992 80.0003H79.9991C81.839 80.0003 83.3323 78.5105 83.3323 76.6671C83.3323 74.8238 81.8394 73.3339 79.9991 73.3339Z" fill="#577D66"/> <path d="M123.335 73.3339H93.3351C91.4952 73.3339 90.0019 74.8238 90.0019 76.6671C90.0019 78.5105 91.4952 80.0003 93.3351 80.0003H123.335C125.175 80.0003 126.668 78.5105 126.668 76.6671C126.668 74.8238 125.175 73.3339 123.335 73.3339Z" fill="#577D66"/> <path d="M103.333 106.667H70.0001C68.1603 106.667 66.6669 108.157 66.6669 110C66.6669 111.843 68.1603 113.333 70.0001 113.333H103.333C105.173 113.333 106.666 111.843 106.666 110C106.666 108.157 105.173 106.667 103.333 106.667Z" fill="#577D66"/> <path d="M123.334 106.667H116.667C114.827 106.667 113.334 108.157 113.334 110C113.334 111.843 114.827 113.333 116.667 113.333H123.334C125.174 113.333 126.667 111.843 126.667 110C126.667 108.157 125.174 106.667 123.334 106.667Z" fill="#577D66"/> <path d="M79.9991 119.999H69.9992C68.1593 119.999 66.6659 121.489 66.6659 123.332C66.6659 125.175 68.1593 126.665 69.9992 126.665H79.9991C81.839 126.665 83.3323 125.175 83.3323 123.332C83.3323 121.489 81.8394 119.999 79.9991 119.999Z" fill="#577D66"/> <path d="M123.335 119.999H93.3351C91.4952 119.999 90.0019 121.489 90.0019 123.332C90.0019 125.175 91.4952 126.665 93.3351 126.665H123.335C125.175 126.665 126.668 125.175 126.668 123.332C126.668 121.489 125.175 119.999 123.335 119.999Z" fill="#577D66"/> <path d="M83.3333 13.334H70.0001C68.1603 13.334 66.6669 14.8238 66.6669 16.6672V30.0008C66.6669 31.8441 68.1603 33.334 70.0001 33.334H83.3333C85.1732 33.334 86.6665 31.8441 86.6665 30.0008V16.6676C86.6665 14.8242 85.1732 13.334 83.3333 13.334ZM79.9997 26.6676H73.3329V20.0008H79.9997V26.6676Z" fill="#577D66"/> <path d="M45.6906 74.3094L35.6906 64.3095C34.3871 63.0059 32.2804 63.0063 30.9773 64.3095C29.6742 65.613 29.6742 67.7196 30.9773 69.0227L40.9773 79.0227C41.6273 79.6727 42.4808 79.9993 43.334 79.9993C44.1875 79.9993 45.0406 79.6727 45.6906 79.0227C46.9937 77.7192 46.9937 75.6126 45.6906 74.3094Z" fill="#577D66"/> <path d="M61.9384 50.6201C60.4419 49.5436 58.3584 49.8936 57.2884 51.3936L40.622 74.7267C39.5521 76.2267 39.8986 78.3099 41.3986 79.3767C41.9853 79.7966 42.6619 80.0001 43.3318 80.0001C44.3717 80.0001 45.3986 79.5134 46.0486 78.6037L62.7154 55.2705C63.7853 53.7701 63.4384 51.6869 61.9384 50.6201Z" fill="#577D66"/> <path d="M57.5034 76.7728C55.7135 76.3029 53.9003 77.3861 53.4401 79.1626C52.3335 83.4392 47.9866 86.6661 43.3335 86.6661C38.6804 86.6661 34.3335 83.4396 33.2268 79.1626C32.7636 77.3826 30.9503 76.2892 29.1636 76.7728C27.3835 77.2361 26.3136 79.0529 26.7737 80.8361C28.6503 88.0759 35.6136 93.3325 43.3339 93.3325C51.0538 93.3325 58.0206 88.0759 59.8971 80.8361C60.3565 79.0529 59.2866 77.2326 57.5034 76.7728Z" fill="#577D66"/> <path d="M47.5057 50.5294C43.3389 49.4462 38.7159 50.0727 34.9823 52.2559C33.3955 53.186 32.8623 55.2294 33.7924 56.8192C34.4123 57.8759 35.5291 58.4657 36.6725 58.4657C37.2424 58.4657 37.826 58.3192 38.3491 58.0122C40.5756 56.7087 43.3491 56.3423 45.8291 56.9821C47.619 57.4555 49.4291 56.3755 49.8924 54.5954C50.3557 52.8126 49.2889 50.9927 47.5057 50.5294Z" fill="#577D66"/> <path d="M43.3341 103.332C35.9806 103.332 30.0009 109.312 30.0009 116.665C30.0009 124.018 35.981 129.998 43.3341 129.998C50.6877 129.998 56.6673 124.018 56.6673 116.665C56.6673 109.312 50.6873 103.332 43.3341 103.332ZM43.3341 123.332C39.6576 123.332 36.6674 120.342 36.6674 116.665C36.6674 112.988 39.6572 109.998 43.3341 109.998C47.0107 109.998 50.0009 112.988 50.0009 116.665C50.0009 120.342 47.0107 123.332 43.3341 123.332Z" fill="#577D66"/> <path d="M103.333 146.668H70.0001C68.1603 146.668 66.6669 148.158 66.6669 150.001C66.6669 151.844 68.1603 153.334 70.0001 153.334H103.333C105.173 153.334 106.666 151.844 106.666 150.001C106.666 148.158 105.173 146.668 103.333 146.668Z" fill="#577D66"/> <path d="M123.334 146.668H116.667C114.827 146.668 113.334 148.158 113.334 150.001C113.334 151.844 114.827 153.334 116.667 153.334H123.334C125.174 153.334 126.667 151.844 126.667 150.001C126.667 148.158 125.174 146.668 123.334 146.668Z" fill="#577D66"/> <path d="M79.9991 160H69.9992C68.1593 160 66.6659 161.49 66.6659 163.333C66.6659 165.176 68.1593 166.666 69.9992 166.666H79.9991C81.839 166.666 83.3323 165.176 83.3323 163.333C83.3323 161.49 81.8394 160 79.9991 160Z" fill="#577D66"/> <path d="M123.335 160H93.3351C91.4952 160 90.0019 161.49 90.0019 163.333C90.0019 165.176 91.4952 166.666 93.3351 166.666H123.335C125.175 166.666 126.668 165.176 126.668 163.333C126.668 161.49 125.175 160 123.335 160Z" fill="#577D66"/> <path d="M43.3341 143.333C35.9806 143.333 30.0009 149.313 30.0009 156.666C30.0009 164.02 35.981 169.999 43.3341 169.999C50.6877 169.999 56.6673 164.019 56.6673 156.666C56.6673 149.313 50.6873 143.333 43.3341 143.333ZM43.3341 163.333C39.6576 163.333 36.6674 160.343 36.6674 156.666C36.6674 152.989 39.6572 149.999 43.3341 149.999C47.0107 149.999 50.0009 152.989 50.0009 156.666C50.0005 160.343 47.0107 163.333 43.3341 163.333Z" fill="#577D66"/> </svg>