<svg xmlns="http://www.w3.org/2000/svg" width="201" height="201" viewBox="0 0 201 201" fill="none" m_init="2259300202204070759"> <path d="M68.4285 132.572C95.5532 159.697 123.559 168.092 142.275 170.363C146.476 170.864 150.537 168.665 152.415 164.874L163.332 143.037C165.666 138.407 164.076 132.759 159.668 130.027L137.942 116.448C133.98 113.95 128.815 114.539 125.518 117.865L117.816 125.567C117.072 126.325 116.008 126.678 114.959 126.515C104.98 124.547 95.8652 119.513 88.8859 112.115C81.4869 105.135 76.4527 96.0184 74.4864 86.0384C74.3253 84.9904 74.6779 83.9287 75.434 83.1853L83.1361 75.4832C86.4617 72.1844 87.0505 67.0187 84.5527 63.0561L70.9735 41.3295C68.2436 36.9187 62.5941 35.3278 57.9637 37.666L36.1266 48.5828C32.3465 50.472 30.1528 54.5249 30.638 58.7228C32.9085 77.4422 41.3037 105.451 68.4285 132.572ZM39.1237 54.5771L60.9575 43.6602C61.4242 43.426 61.9389 43.3033 62.461 43.3019C63.6139 43.3049 64.6842 43.9008 65.2941 44.8791L78.8732 66.6057C79.6994 67.9281 79.5036 69.6456 78.401 70.7481L70.6989 78.4502C68.4081 80.7268 67.358 83.9696 67.8793 87.1569C70.0812 98.5079 75.7679 108.89 84.1475 116.857C92.1146 125.236 102.496 130.923 113.847 133.125C117.034 133.643 120.276 132.594 122.554 130.305L130.256 122.603C131.359 121.501 133.076 121.305 134.399 122.131L156.125 135.71C157.588 136.626 158.116 138.503 157.344 140.047L146.427 161.881C145.803 163.131 144.468 163.863 143.078 163.716C125.407 161.576 98.9321 153.613 73.1603 127.841C47.3884 102.069 39.4251 75.6004 37.2853 57.9225C37.1322 56.5314 37.8674 55.1936 39.1237 54.5771Z" fill="#577D66"/> <path d="M15.8875 157.3L2.86758 189.856C1.90665 192.257 2.41344 194.996 4.16961 196.894C5.92579 198.792 8.61761 199.51 11.0854 198.737L47.7038 187.295C48.6142 187.013 49.6017 187.135 50.4163 187.63C65.65 196.405 82.9262 201.013 100.507 200.991C102.603 200.991 104.703 200.926 106.806 200.797C151.989 197.955 189.694 165.252 198.895 120.924C208.096 76.5957 186.521 31.5882 146.201 10.9985C105.881 -9.59122 56.7721 -0.679225 26.258 32.7649C-4.2561 66.209 -8.64068 115.927 15.5492 154.196C16.1598 155.114 16.286 156.272 15.8875 157.3ZM7.04345 92.492C10.609 50.9602 41.1592 16.7662 82.0287 8.56315C122.898 0.360119 164.277 20.117 183.593 57.0564C202.908 93.9957 195.525 139.251 165.469 168.135C135.414 197.018 89.9008 202.598 53.7583 181.83C52.2017 180.933 50.4376 180.46 48.6414 180.457C47.6459 180.456 46.656 180.605 45.7046 180.899L9.08618 192.345L22.1128 159.802C23.299 156.775 22.9641 153.364 21.2119 150.626C10.2316 133.331 5.25229 112.9 7.04345 92.492Z" fill="#577D66"/> <path d="M113.163 21.1629C130.938 24.0471 147.242 32.7796 159.493 45.9771C160.301 46.8752 161.529 47.2691 162.708 47.0077C163.887 46.7463 164.834 45.8702 165.187 44.715C165.539 43.5597 165.242 42.3043 164.409 41.4295C151.138 27.139 133.479 17.6843 114.228 14.5626C112.465 14.3844 110.868 15.6112 110.586 17.361C110.303 19.1108 111.433 20.7775 113.163 21.1629Z" fill="#577D66"/> <path d="M100.473 20.1588C102.322 20.1588 103.821 18.6595 103.821 16.8101C103.821 14.9606 102.322 13.4613 100.473 13.4613C98.6232 13.4613 97.1239 14.9606 97.1239 16.8101C97.1239 18.6595 98.6232 20.1588 100.473 20.1588Z" fill="#577D66"/> </svg>